<svg t="1721628673071" class="icon" viewBox="0 0 1024 1024" version="1.1" xmlns="http://www.w3.org/2000/svg"
     p-id="1395" width="200" height="200">
    <path
            d="M751.738641 321.249585c-65.11195 0-118.062929-52.953026-118.062929-118.040417V67.267033H209.198068c-39.688931 0-71.855538 32.190143-71.855538 71.855538v745.757928c0 39.663348 32.168654 71.806419 71.855538 71.806419h603.64014c39.668465 0 71.836095-32.143071 71.836095-71.806419V321.249585H751.738641z m14.392802 475.473085H255.85776v-48.137347h510.273683v48.137347z m0-154.044422H255.85776v-48.137347h510.273683v48.137347z m0-154.044422H255.85776V440.495456h510.273683v48.13837z"
            fill="#FA6060" p-id="1396"></path>
    <path
            d="M679.880033 67.267033v135.943158c0 39.665395 32.172747 71.808466 71.858608 71.808466h132.934639L679.880033 67.267033z"
            fill="#FE7A7A" p-id="1397"></path>
</svg>