<svg t="1722235175317" class="icon" viewBox="0 0 1024 1024" version="1.1" xmlns="http://www.w3.org/2000/svg"
     p-id="5867" width="200" height="200">
    <path
            d="M839.26 85.42h-653a88.1 88.1 0 0 0-88 88v547.46a88.1 88.1 0 0 0 88 88h653a88.1 88.1 0 0 0 88-88V173.42a88.1 88.1 0 0 0-88-88z m40 635.46a40 40 0 0 1-40 40h-653a40 40 0 0 1-40-40V173.42a40 40 0 0 1 40-40h653a40 40 0 0 1 40 40z"
            fill="#677787" p-id="5868"></path>
    <path
            d="M405.07 289.63a24 24 0 0 0-33.93-0.74L228.84 425.2a24 24 0 0 0-6.94 21.95 24 24 0 0 0 6.94 22l142.3 136.3a24 24 0 0 0 33.2-34.66l-129-123.59 129-123.59a24 24 0 0 0 0.73-33.98zM796.69 425.2l-142.3-136.31a24 24 0 0 0-33.21 34.67l129 123.59-129 123.59a24 24 0 0 0 33.21 34.66l142.3-136.3a24 24 0 0 0 6.93-22 24 24 0 0 0-6.93-21.9zM549.88 301.19a24 24 0 0 0-29.17 17.35L458.3 563.93a24 24 0 0 0 17.34 29.18 24.32 24.32 0 0 0 5.93 0.74 24 24 0 0 0 23.25-18.09l62.41-245.39a24 24 0 0 0-17.35-29.18zM735.39 890.75H290.14a24 24 0 1 0 0 48h445.25a24 24 0 0 0 0-48z"
            fill="#677787" p-id="5869"></path>
</svg>