<svg t="1719644598564" class="icon" viewBox="0 0 1142 1024" version="1.1" xmlns="http://www.w3.org/2000/svg"
     p-id="974" width="200" height="200">
    <path
            d="M891.392 992.768c-87.552 26.624-227.84 31.232-379.392 31.232-291.84 0-512-34.816-512-118.272 0-158.72 152.064-298.496 370.688-340.992-148.48-67.072-215.04-241.664-147.968-390.656 48.128-105.984 153.6-174.08 269.824-174.08 163.328 0 295.424 132.096 295.424 295.424 0 113.664-65.024 217.088-167.424 266.24 34.304 6.656 67.584 15.872 99.328 28.16-31.744 28.672-50.176 69.632-50.176 112.64 0 147.456 141.824 234.496 221.696 290.304z"
            fill="#5f90f1" p-id="975" data-spm-anchor-id="a313x.manage_type_mylikes.0.i1.2d6b3a81oAGG4E"
            class="selected"></path>
    <path
            d="M860.16 590.848c34.304 0 64.512 16.384 84.992 40.96 20.48-24.576 50.688-40.96 84.992-40.96 61.44 0 112.128 50.688 112.128 113.152 0 128-142.848 195.584-190.976 236.032l-6.144 5.12-6.144-5.12c-48.128-40.448-190.976-107.52-190.976-236.032 0.512-62.464 50.688-113.152 112.128-113.152z"
            fill="#5f90f1" p-id="976" data-spm-anchor-id="a313x.manage_type_mylikes.0.i0.2d6b3a81oAGG4E"
            class="selected"></path>
</svg>
