<svg t="1722703657464" class="icon" viewBox="0 0 1024 1024" version="1.1" xmlns="http://www.w3.org/2000/svg"
     p-id="21855" width="200" height="200">
    <path
            d="M486.87786667 225.58340741c0-3.51952592-5.33997037-10.55857778-8.8594963-12.37902223-3.51952592-3.51952592-8.8594963-3.51952592-15.89854815-3.51952593-28.27757037 5.33997037-53.03561482 14.19946667-77.79365925 26.45712593-22.9376 12.37902222-45.99656297 26.45712592-67.11371852 45.99656297-19.41807408 15.89854815-38.83614815 37.13706667-54.85605927 60.07466667-14.19946667 22.9376-28.27757037 58.37558518-38.83614815 77.79365926-26.45712592 12.37902222-104.25078518 42.47703703-104.25078518 42.47703703s-21.23851852 8.8594963-28.27757037 17.71899259c-8.8594963 10.55857778-10.55857778 28.27757037-10.55857778 35.31662222 0 24.75804445 1.82044445 49.51608889 5.33997038 74.27413333 7.03905185 24.75804445 12.37902222 47.69564445 22.9376 70.75460742 10.55857778 22.9376 22.9376 44.17611852 38.83614814 65.41463703 14.19946667 17.71899259 56.55514075 60.07466667 56.55514075 60.07466667s-1.82044445 67.11371852 5.33997036 106.07122963c1.82044445 12.37902222 7.03905185 22.9376 10.55857778 26.45712592 19.41807408 19.41807408 74.27413333 31.7970963 99.03217778 33.61754075 63.59419259 1.82044445 107.77031111-5.33997037 144.90737778-17.71899259 21.23851852-7.03905185 56.55514075-28.27757037 65.41463703-33.61754075h3.51952593l102.5517037 38.83614815c5.33997037 1.82044445 19.41807408 0 24.75804445-3.51952593 5.33997037-3.51952592 15.89854815-19.41807408 21.23851852-24.75804444 21.23851852-22.9376 53.03561482-100.73125925 60.07466667-136.04788148 5.33997037-24.75804445 7.03905185-47.69564445 7.03905185-72.45368888-1.82044445-24.75804445-3.51952592-49.51608889-10.55857779-72.4536889-1.82044445-5.33997037 0-8.8594963 0-10.55857777 1.82044445-3.51952592 79.49274075-102.5517037 86.65315556-134.3488 1.82044445-14.19946667-7.03905185-28.27757037-10.55857777-33.61754075-26.45712592-37.13706667-75.97321482-79.49274075-116.62980741-102.5517037-22.9376-12.37902222-47.69564445-19.41807408-72.45368889-26.45712593-26.45712592-7.03905185-53.03561482-10.55857778-77.79365927-10.55857778-5.33997037 0-12.37902222 3.51952592-15.89854814 7.03905186L486.87786667 225.58340741z m250.97860741 394.1869037"
            fill="#FDCC02" p-id="21856"></path>
    <path
            d="M899.26921482 564.18607408c2.42725925-4.73315555 107.64894815-138.71786667 117.23662221-181.80171853 2.42725925-19.17534815-9.58767408-38.22933333-14.32082962-45.38974814-35.92343703-50.24426667-102.91579259-107.64894815-157.89321482-138.71786666-31.06891852-16.74808889-64.5650963-26.33576297-98.06127407-35.92343705-35.92343703-9.58767408-71.72551111-14.32082963-105.22168889-14.32082962-7.16041482 0-16.74808889 4.73315555-21.48124445 9.58767407-7.16041482 4.73315555-9.58767408 12.01493333-9.58767407 21.48124444 0 7.16041482 4.73315555 14.32082963 9.58767407 19.17534816 4.73315555 7.16041482 12.01493333 9.58767408 21.48124445 9.58767407 26.33576297 0 57.40468148 4.73315555 90.90085926 7.16041481 28.64165925 7.16041482 57.40468148 19.17534815 86.1677037 33.49617778 28.76302222 14.32082963 131.55745185 88.4736 133.98471111 126.82429629-4.73315555 23.9085037-112.3821037 169.78678518-112.3821037 169.78678519-7.16041482 9.58767408-4.73315555 16.74808889-2.42725925 26.33576296 19.17534815 57.40468148 16.74808889 148.30554075 7.1604148 191.3893926-7.16041482 28.76302222-14.32082963 54.97742222-26.33576296 81.31318518-12.01493333 28.76302222-33.49617778 66.99235555-52.67152592 86.1677037-12.01493333-2.42725925-117.23662222-50.24426667-129.13019259-52.67152592-7.16041482 0-14.32082963 0-19.17534816 2.42725926-33.49617778 16.74808889-153.0386963 69.41961482-193.81665184 71.72551111-26.33576297 2.42725925-54.97742222 2.42725925-83.74044445 0-28.76302222-2.42725925-71.72551111-12.01493333-88.4736-26.33576296-14.32082963-12.01493333-4.73315555-145.87828148-14.32082963-162.62637037-9.58767408-16.74808889-71.72551111-71.72551111-86.1677037-93.32811853-19.17534815-23.9085037-33.49617778-47.81700741-45.51111112-74.15277037-14.32082963-26.33576297-23.9085037-54.97742222-28.76302221-83.74044444-4.73315555-31.06891852-7.16041482-90.90085925-4.73315556-95.63401481 0 0 162.62637037-69.41961482 169.78678518-78.88592593 14.32082963-12.01493333 45.38974815-86.1677037 62.13783704-112.3821037 16.74808889-26.33576297 40.65659259-52.67152592 62.13783704-71.72551112 26.33576297-21.48124445 52.67152592-38.22933333 86.1677037-54.97742222 26.33576297-14.32082963 54.97742222-26.33576297 86.16770371-31.06891851 7.16041482-2.42725925 14.32082963-4.73315555 19.17534814-14.32082964 2.42725925-4.73315555 4.73315555-12.01493333 2.42725926-21.48124443 0-4.73315555-7.16041482-14.32082963-12.01493333-16.7480889-4.73315555-4.73315555-12.01493333-4.73315555-21.48124445-4.73315555-38.22933333 7.16041482-71.72551111 19.17534815-105.22168888 35.92343703-31.06891852 16.74808889-62.2592 35.92343703-90.90085927 62.2592-26.33576297 21.48124445-52.67152592 50.24426667-74.15277037 81.31318519-19.17534815 31.06891852-38.22933333 78.88592592-52.67152593 105.22168889-35.80207408 16.14127408-141.14512592 56.79786667-141.14512592 56.79786667s-28.76302222 12.01493333-38.22933333 23.9085037c-12.01493333 14.32082963-14.32082963 38.22933333-14.32082963 47.8170074 0 33.49617778 2.42725925 66.99235555 7.16041481 100.48853334 9.58767408 33.49617778 16.74808889 64.5650963 31.06891852 95.63401481 14.32082963 31.06891852 31.06891852 59.83194075 52.67152593 88.4736 19.17534815 23.9085037 76.58002963 81.31318518 76.58002962 81.31318519s-2.42725925 90.90085925 7.16041483 143.57238518c2.42725925 16.74808889 9.58767408 31.06891852 14.32082962 35.92343705 26.33576297 26.33576297 100.48853333 43.08385185 133.98471112 45.5111111 86.1677037 2.42725925 145.87828148-7.16041482 196.12254815-23.9085037 28.64165925-9.58767408 76.58002963-38.22933333 88.4736-45.51111112h4.73315555l138.71786666 52.67152594c7.16041482 2.42725925 26.33576297 0 33.49617779-4.73315556 7.16041482-4.73315555 21.48124445-26.33576297 28.76302221-33.49617778 28.64165925-31.06891852 71.72551111-136.29060741 81.31318519-184.22897778 7.16041482-33.49617778 9.58767408-64.5650963 9.58767408-98.06127407-2.42725925-33.49617778-4.73315555-66.99235555-14.32082963-98.06127408-2.42725925-7.16041482 0-12.01493333 0-14.32082962z m0 0"
            fill="" p-id="21857"></path>
    <path
            d="M595.49771852 535.42305185c-0.12136297 21.48124445 11.28675555 41.26340741 29.85528889 51.94334815 18.56853333 10.67994075 41.38477037 10.67994075 59.9533037 0 18.56853333-10.67994075 29.97665185-30.58346667 29.85528889-51.94334815 0.12136297-21.48124445-11.28675555-41.26340741-29.85528889-51.94334815-18.56853333-10.67994075-41.38477037-10.67994075-59.9533037 0-18.56853333 10.67994075-29.97665185 30.58346667-29.85528889 51.94334815zM313.20746667 645.49925925c5.70405925 5.70405925 13.47128889 8.98085925 21.48124444 8.98085927s15.77718518-3.2768 21.48124444-8.98085927l83.74044445-83.74044443c9.58767408-9.58767408 9.58767408-26.33576297-2.42725925-35.92343704l-93.32811853-69.41961481c-14.32082963-9.58767408-31.06891852-7.16041482-40.65659259 7.16041481-9.58767408 14.32082963-7.16041482 31.06891852 7.16041482 40.65659259l57.40468147 43.08385185-54.97742222 54.97742223c-5.70405925 5.70405925-8.98085925 13.47128889-8.98085925 21.48124444 0.12136297 8.25268148 3.39816297 16.01991111 9.10222222 21.72397036z m0 0"
            fill="" p-id="21858"></path>
</svg>
