<svg t="1696610348610" class="icon" viewBox="0 0 1024 1024" version="1.1" xmlns="http://www.w3.org/2000/svg" p-id="1335"
     width="200" height="200">
    <path
            d="M897.6 315.2H707.2c-6.4 0-11.2-3.2-12.8-6.4-1.6-1.6-4.8-6.4-4.8-14.4l9.6-76.8c9.6-72-30.4-140.8-96-163.2-40-14.4-81.6-11.2-118.4 9.6-36.8 19.2-62.4 54.4-72 94.4-1.6 8-8 22.4-12.8 30.4l-16 30.4c-20.8 38.4-70.4 94.4-104 126.4-8 6.4-14.4 14.4-19.2 24H144c-67.2 0-121.6 54.4-121.6 121.6v364.8c0 67.2 54.4 121.6 121.6 121.6h145.6V438.4c0-20.8 8-41.6 24-54.4 38.4-35.2 91.2-94.4 115.2-139.2l16-30.4c4.8-8 14.4-27.2 17.6-41.6 6.4-27.2 24-49.6 48-62.4 24-12.8 52.8-16 78.4-6.4 43.2 14.4 68.8 60.8 62.4 110.4l-9.6 73.6c-3.2 19.2 3.2 38.4 16 52.8 12.8 14.4 30.4 22.4 49.6 22.4H896c40 0 72 32 73.6 70.4l-94.4 403.2v3.2c-6.4 32-30.4 88-121.6 88H483.2c-12.8 0-24 11.2-24 24s11.2 24 24 24h270.4c136 0 164.8-97.6 169.6-128l94.4-404.8v-4.8c0-68.8-54.4-123.2-120-123.2zM241.6 928H144c-40 0-73.6-32-73.6-73.6V491.2c0-40 32-73.6 73.6-73.6h97.6V928z"
            fill="" p-id="1336"></path>
</svg>