<svg t="1722705649462" class="icon" viewBox="0 0 1331 1024" version="1.1" xmlns="http://www.w3.org/2000/svg"
     p-id="23075" width="200" height="200">
    <path
            d="M1284.608 151.8592c26.9824 0 46.592 19.5072 46.592 43.4176v633.4464c0 15.2064-7.3728 28.2112-22.016 36.864-14.7456 6.5536-31.8976 8.704-46.592 2.2016l-220.5696-91.136v162.7136c0 45.568-41.6256 84.6336-95.5392 84.6336H95.5392C44.1856 1024 0 987.136 0 939.3664V84.6336C0 39.0656 41.6768 0 95.5904 0h853.3504C1000.3968 0 1044.48 36.864 1044.48 84.6336V247.296l220.5696-91.136a50.9952 50.9952 0 0 1 19.6096-4.352z m-589.824 378.4704a51.2 51.2 0 0 0 0-87.8592l-258.8672-155.136A51.2 51.2 0 0 0 358.4 331.1616v310.3744a51.2 51.2 0 0 0 77.5168 43.8784l258.816-155.136z"
            fill="#626262" p-id="23076"></path>
</svg>
