<svg t="1721135808469" viewBox="0 0 1024 1024" version="1.1" xmlns="http://www.w3.org/2000/svg"
     p-id="60357" width="45" height="45">
    <path
            d="M512 512m-471.365079 0a471.365079 471.365079 0 1 0 942.730158 0 471.365079 471.365079 0 1 0-942.730158 0Z"
            fill="#DFDFED" p-id="60358"></path>
    <path
            d="M499.809524 479.492063m-410.412699 0a410.412698 410.412698 0 1 0 820.825397 0 410.412698 410.412698 0 1 0-820.825397 0Z"
            fill="#F0F0FF" p-id="60359"></path>
    <path
            d="M512 60.952381c248.710095 0 451.047619 202.337524 451.047619 451.047619s-202.337524 451.047619-451.047619 451.047619S60.952381 760.710095 60.952381 512 263.289905 60.952381 512 60.952381zM20.31746 512c0 271.120254 220.566349 491.68254 491.68254 491.68254 271.120254 0 491.68254-220.562286 491.68254-491.68254C1003.68254 240.88381 783.120254 20.31746 512 20.31746 240.88381 20.31746 20.31746 240.88381 20.31746 512z"
            fill="#6E6E96" p-id="60360"></path>
    <path
            d="M281.396825 476.444444h89.396826v81.269842h-89.396826zM671.492063 476.444444h86.857143v81.269842H671.492063z"
            fill="#6E6E96" p-id="60361"></path>
</svg>