<svg t="1719413736534" class="icon" viewBox="0 0 1024 1024" version="1.1" xmlns="http://www.w3.org/2000/svg"
     p-id="8739" width="200" height="200">
    <path
            d="M111.3 400.7C49.9 400.7 0 450.6 0 512s49.9 111.3 111.3 111.3S222.6 573.4 222.6 512s-49.9-111.3-111.3-111.3z m0 178.1c-36.8 0-66.8-30-66.8-66.8s30-66.8 66.8-66.8 66.8 30 66.8 66.8-30 66.8-66.8 66.8zM912.7 400.7c-61.4 0-111.3 49.9-111.3 111.3s49.9 111.3 111.3 111.3S1024 573.4 1024 512s-49.9-111.3-111.3-111.3z m0 178.1c-36.8 0-66.8-30-66.8-66.8s30-66.8 66.8-66.8 66.8 30 66.8 66.8-30 66.8-66.8 66.8zM512 400.7c-61.4 0-111.3 49.9-111.3 111.3S450.6 623.3 512 623.3 623.3 573.4 623.3 512 573.4 400.7 512 400.7z m0 178.1c-36.8 0-66.8-30-66.8-66.8s30-66.8 66.8-66.8 66.8 30 66.8 66.8-30 66.8-66.8 66.8z"
            fill="#FFFFFF" p-id="8740" data-spm-anchor-id="a313x.search_index.0.i7.42ff3a81pGl1rZ"
            class="selected"></path>
</svg>