<svg t="1722943626691" class="icon" viewBox="0 0 1024 1024" version="1.1" xmlns="http://www.w3.org/2000/svg"
     p-id="7814" width="200" height="200">
    <path
            d="M541.866667 541.866667c72.533333-38.4 123.733333-115.2 123.733333-204.8 0-128-106.666667-234.666667-238.933333-234.666667-132.266667 0-238.933333 106.666667-238.933334 234.666667 0 89.6 51.2 166.4 123.733334 204.8-85.333333 25.6-140.8 76.8-174.933334 119.466666-55.466667 68.266667-85.333333 162.133333-85.333333 247.466667 0 12.8 12.8 25.6 29.866667 25.6s29.866667-12.8 29.866666-25.6c0-55.466667 21.333333-145.066667 76.8-217.6 42.666667-51.2 119.466667-115.2 243.2-115.2 221.866667 0 324.266667 196.266667 324.266667 332.8 0 12.8 12.8 25.6 29.866667 25.6s29.866667-12.8 29.866666-25.6c-8.533333-132.266667-93.866667-311.466667-273.066666-366.933333z m-298.666667-204.8c0-102.4 81.066667-183.466667 183.466667-183.466667s183.466667 81.066667 183.466666 183.466667-81.066667 183.466667-183.466666 183.466666c-98.133333 0-183.466667-85.333333-183.466667-183.466666z m0 0"
            p-id="7815"></path>
    <path
            d="M930.133333 644.266667c-42.666667-64-106.666667-102.4-153.6-119.466667 46.933333-34.133333 110.933333-93.866667 102.4-187.733333-12.8-136.533333-149.333333-174.933333-157.866666-179.2-12.8-4.266667-29.866667 4.266667-34.133334 17.066666-4.266667 12.8 4.266667 25.6 17.066667 29.866667 4.266667 0 106.666667 29.866667 115.2 132.266667 12.8 106.666667-115.2 162.133333-119.466667 162.133333-12.8 12.8-17.066667 21.333333-17.066666 34.133333 0 12.8 8.533333 21.333333 21.333333 21.333334 0 0 119.466667 29.866667 174.933333 115.2 46.933333 72.533333 46.933333 153.6 46.933334 153.6 0 12.8 12.8 25.6 25.6 25.6 17.066667 0 25.6-12.8 29.866666-25.6 0 0 4.266667-89.6-51.2-179.2z m0 0"
            p-id="7816"></path>
</svg>
