<svg data-v-6b70dfde="" xmlns="http://www.w3.org/2000/svg" width="40" viewBox="0 0 32 32" class="zuo-icon icon">
    <path
            d="M14.75 26c0 2.05-1.65 3.7-3.7 3.7H3.7C1.65 29.7 0 28.05 0 26V12.45C0 7.05 4.4 2.6 9.85 2.6h1.25c.65 0 1.25.55 1.25 1.25V6.3c0 .65-.55 1.25-1.25 1.25H9.85c-2.7 0-4.9 2.2-4.9 4.9v.6c0 1 .85 1.85 1.85 1.85h4.3c2.05 0 3.7 1.65 3.7 3.7V26zM32 26c0 2.05-1.65 3.7-3.7 3.7h-7.4c-2.05 0-3.7-1.65-3.7-3.7V12.45c0-5.4 4.4-9.85 9.85-9.85h1.25c.65 0 1.25.55 1.25 1.25V6.3c0 .65-.55 1.25-1.25 1.25h-1.25c-2.7 0-4.9 2.2-4.9 4.9v.6c0 1 .85 1.85 1.85 1.85h4.3c2.05 0 3.7 1.65 3.7 3.7V26z"></path>
</svg>
