<svg data-v-6b70dfde="" xmlns="http://www.w3.org/2000/svg" width="40" viewBox="0 0 32 32" class="you-icon icon">
    <path
            d="M14.9 19.6c0 5.4-4.4 9.85-9.85 9.85H3.8c-.65 0-1.25-.55-1.25-1.25v-2.45c0-.65.55-1.25 1.25-1.25h1.25c2.7 0 4.9-2.2 4.9-4.9V19c0-1-.85-1.85-1.85-1.85H3.8c-2.05 0-3.7-1.65-3.7-3.7v-7.4c0-2.05 1.65-3.7 3.7-3.7h7.4c2.05 0 3.7 1.65 3.7 3.7V19.6zm17.2 0c0 5.4-4.4 9.85-9.85 9.85H21c-.65 0-1.25-.55-1.25-1.25v-2.45c0-.65.55-1.25 1.25-1.25h1.25c2.7 0 4.9-2.2 4.9-4.9V19c0-1-.85-1.85-1.85-1.85H21c-2.05 0-3.7-1.65-3.7-3.7v-7.4c0-2.05 1.65-3.7 3.7-3.7h7.4c2.05 0 3.7 1.65 3.7 3.7V19.6z"></path>
</svg>
