<svg t="1719411751881" class="icon" viewBox="0 0 1867 1024" version="1.1" xmlns="http://www.w3.org/2000/svg"
     p-id="1526" width="200" height="200">
    <path
            d="M864.978824 756.555294c0-80.112941-121.072941-145.769412-270.456471-145.769412-29.515294 0-57.825882 2.409412-84.931765 7.228236C493.327059 548.743529 392.734118 530.070588 313.223529 530.070588c-86.738824 0-138.541176 59.632941-138.541176 114.447059 0 19.275294 4.818824 37.345882 12.649412 53.609412C79.510588 714.992941 0 771.011765 0 837.270588c0 80.112941 114.447059 144.564706 256 144.564706 163.237647 0 224.677647-34.334118 245.76-84.329412 26.503529 2.409412 57.223529 4.216471 92.762353 4.216471 281.901176 0 270.456471-65.054118 270.456471-145.167059z"
            fill="#e6e2fb" p-id="1527" data-spm-anchor-id="a313x.manage_type_mylikes.0.i23.58e63a8189w38e"
            class="selected"></path>
    <path
            d="M1445.647059 36.141176H421.647059c-33.129412 0-60.235294 27.105882-60.235294 60.235295v644.517647c0 33.129412 27.105882 60.235294 60.235294 60.235294h1024c33.129412 0 60.235294-27.105882 60.235294-60.235294V96.376471c0-33.129412-27.105882-60.235294-60.235294-60.235295z"
            fill="#9286d1" p-id="1528" data-spm-anchor-id="a313x.manage_type_mylikes.0.i18.58e63a8189w38e"
            class=""></path>
    <path
            d="M1367.341176 126.494118h-42.767058l42.767058 42.164706v-42.164706zM542.117647 126.494118h-42.164706v42.164706l42.164706-42.164706z m-42.164706 542.117647v42.164706h42.164706l-42.164706-42.164706z m867.388235 0.602353l-42.164705 41.562353h42.164705v-41.562353z"
            fill="#FFFFFF" p-id="1529"></path>
    <path
            d="M1252.894118 210.823529h-590.305883c-33.129412 0-60.235294 27.105882-60.235294 60.235295v343.341176c0 33.129412 27.105882 60.235294 60.235294 60.235294h590.305883c33.129412 0 60.235294-27.105882 60.235294-60.235294V271.058824c0-33.129412-27.105882-60.235294-60.235294-60.235295z"
            fill="#00162B" p-id="1530"></path>
    <path
            d="M1210.729412 174.682353h-590.305883c-33.129412 0-60.235294 27.105882-60.235294 60.235294v343.341177c0 33.129412 27.105882 60.235294 60.235294 60.235294h590.305883c33.129412 0 60.235294-27.105882 60.235294-60.235294V234.917647c0-33.129412-27.105882-60.235294-60.235294-60.235294z"
            fill="#FFFFFF" p-id="1531" data-spm-anchor-id="a313x.manage_type_mylikes.0.i20.58e63a8189w38e"
            class=""></path>
    <path
            d="M680.658824 391.529412c10.24 0 18.070588-7.830588 18.070588-18.070588s-7.830588-18.070588-18.070588-18.070589-18.070588 7.830588-18.070589 18.070589 7.830588 18.070588 18.070589 18.070588z m0 30.117647c-10.24 0-18.070588 7.830588-18.070589 18.070588s7.830588 18.070588 18.070589 18.070588 18.070588-7.830588 18.070588-18.070588-7.830588-18.070588-18.070588-18.070588z m0 72.282353c-10.24 0-18.070588 7.830588-18.070589 18.070588s7.830588 18.070588 18.070589 18.070588 18.070588-7.830588 18.070588-18.070588-7.830588-18.070588-18.070588-18.070588z"
            fill="#9286d1" p-id="1532" data-spm-anchor-id="a313x.manage_type_mylikes.0.i19.58e63a8189w38e"
            class=""></path>
    <path
            d="M1006.531765 536.094118h239.73647c-5.421176-54.814118-46.983529-98.183529-100.592941-106.616471 20.48-8.432941 35.538824-28.912941 35.538824-53.007059 0-31.322353-25.901176-57.223529-57.22353-57.223529s-57.223529 25.901176-57.223529 57.223529c0 24.696471 15.661176 45.176471 36.743529 53.609412-51.802353 10.24-91.557647 53.007059-96.978823 106.014118z"
            fill="#00162B" p-id="1533"></path>
    <path
            d="M976.414118 524.047059h239.73647c-5.421176-54.814118-46.983529-98.183529-100.592941-106.616471 20.48-8.432941 35.538824-28.912941 35.538824-53.007059 0-31.322353-25.901176-57.223529-57.22353-57.223529s-57.223529 25.901176-57.223529 57.223529c0 24.696471 15.661176 45.176471 36.743529 53.609412-51.802353 10.24-91.557647 53.007059-96.978823 106.014118z"
            fill="#9286d1" p-id="1534" data-spm-anchor-id="a313x.manage_type_mylikes.0.i17.58e63a8189w38e"
            class=""></path>
    <path
            d="M831.247059 355.388235h-114.447059v24.094118h114.447059v-24.094118z m-114.447059 72.282353v24.094118h198.776471v-24.094118h-198.776471z m0 96.376471h198.776471v-24.094118h-198.776471v24.094118z"
            fill="#e6e2fb" p-id="1535" data-spm-anchor-id="a313x.manage_type_mylikes.0.i21.58e63a8189w38e"
            class="selected"></path>
    <path
            d="M1867.294118 171.670588c0-37.345882-56.621176-68.065882-126.494118-68.065882-13.854118 0-27.105882 1.204706-39.755294 3.614118-7.830588-32.527059-54.814118-40.96-91.557647-40.96-40.357647 0-64.451765 27.708235-64.451765 53.609411 0 9.035294 2.409412 17.468235 6.02353 24.696471-50.597647 7.830588-87.341176 33.731765-87.341177 65.054118 0 37.345882 53.609412 67.463529 119.265882 67.463529 76.498824 0 104.809412-16.263529 114.447059-39.152941 12.649412 1.204706 26.503529 1.807059 43.369412 1.807059 131.915294 0 126.494118-30.117647 126.494118-68.065883z"
            fill="#e6e2fb" p-id="1536" data-spm-anchor-id="a313x.manage_type_mylikes.0.i22.58e63a8189w38e"
            class="selected"></path>
    <path
            d="M1572.141176 689.694118c0-13.854118-17.468235-25.298824-39.755294-25.298824-4.216471 0-8.432941 0.602353-12.649411 1.204706-2.409412-12.047059-16.865882-15.058824-28.912942-15.058824-12.649412 0-20.48 10.24-20.48 19.877648 0 3.614118 0.602353 6.625882 1.807059 9.035294-15.661176 3.011765-27.708235 12.649412-27.708235 24.094117 0 13.854118 16.865882 25.298824 37.345882 25.298824 24.094118 0 33.129412-6.023529 36.141177-14.456471 4.216471 0.602353 8.432941 0.602353 13.854117 0.602353 42.164706 0 40.357647-11.444706 40.357647-25.298823z"
            fill="#e6e2fb" p-id="1537" data-spm-anchor-id="a313x.manage_type_mylikes.0.i24.58e63a8189w38e"
            class="selected"></path>
</svg>
