<svg t="1696610429261" class="icon" viewBox="0 0 1024 1024" version="1.1" xmlns="http://www.w3.org/2000/svg" p-id="1489"
     width="200" height="200">
    <path
            d="M1022.4 580.8L928 176c-6.4-30.4-35.2-128-169.6-128H488c-14.4 0-24 11.2-24 24S473.6 96 488 96h270.4c91.2 0 115.2 54.4 121.6 88v3.2l94.4 403.2c-1.6 40-33.6 70.4-73.6 70.4H712c-19.2 0-36.8 8-49.6 22.4-12.8 14.4-17.6 33.6-16 52.8l9.6 76.8c6.4 49.6-20.8 96-62.4 110.4-27.2 9.6-54.4 6.4-78.4-6.4-24-12.8-41.6-36.8-48-62.4-3.2-14.4-12.8-33.6-17.6-41.6l-16-30.4c-24-44.8-75.2-104-115.2-139.2-16-14.4-24-33.6-24-54.4V46.4H148.8c-67.2 0-121.6 54.4-121.6 121.6v364.8c0 67.2 54.4 121.6 121.6 121.6h118.4c4.8 8 11.2 16 19.2 24 35.2 32 83.2 86.4 104 126.4l16 30.4c4.8 9.6 11.2 22.4 12.8 30.4 9.6 40 36.8 75.2 72 94.4 36.8 19.2 78.4 22.4 118.4 9.6 64-22.4 104-91.2 96-163.2l-9.6-76.8c-1.6-6.4 1.6-11.2 4.8-14.4 1.6-1.6 6.4-6.4 12.8-6.4h188.8c67.2 0 121.6-54.4 121.6-121.6l-1.6-6.4z m-777.6 24h-96c-40 0-73.6-32-73.6-73.6V168C75.2 128 108.8 96 148.8 96h97.6v508.8z"
            fill="" p-id="1490"></path>
</svg>
