<svg t="1721630278794" class="icon" viewBox="0 0 1024 1024" version="1.1" xmlns="http://www.w3.org/2000/svg"
     p-id="18183" width="200" height="200">
    <path
            d="M233.6 416h128c16 0 28.8 12.8 28.8 28.8v211.2c0 16 12.8 28.8 28.8 28.8h217.6c16 0 28.8-12.8 28.8-28.8v-211.2c0-16 12.8-28.8 28.8-28.8h128c16 0 19.2-9.6 9.6-19.2L544 73.6c-9.6-9.6-22.4-12.8-32-3.2l-3.2 3.2L224 396.8c-9.6 9.6-3.2 19.2 9.6 19.2zM835.2 809.6H204.8c-16 0-28.8 12.8-28.8 28.8v35.2c0 16 12.8 28.8 28.8 28.8h630.4c16 0 28.8-12.8 28.8-28.8v-35.2c0-16-12.8-28.8-28.8-28.8z"
            fill="#9286d1" p-id="18184" data-spm-anchor-id="a313x.search_index.0.i1.31493a81bTVpO0"
            class="selected"></path>
</svg>

