<svg t="1721630378015" class="icon" viewBox="0 0 1257 1024" version="1.1" xmlns="http://www.w3.org/2000/svg"
     p-id="23737" width="200" height="200">
    <path d="M991.00390633 116.4921875H208.777344C156.04296875 116.4921875 116.4921875 160.43750008 116.4921875 217.5664059v593.26171875C116.4921875 863.56249992 156.04296875 907.5078125 208.777344 907.5078125H995.39843768c48.33984393 0 92.2851565-43.94531258 92.28515572-101.0742184V217.5664059C1083.28906285 160.43750008 1043.7382816 116.4921875 991.00390633 116.4921875zM296.6679684 806.4335941c0 17.57812535-13.183594 35.15624992-30.76171857 35.1562499H208.777344c-17.57812535 0-30.76171857-13.183594-30.76171935-35.1562499v-65.91796927c0-17.57812535 13.183594-35.15624992 30.76171935-35.15624991h61.52343717c17.57812535 0 30.76171857 13.183594 30.76171858 35.1562499v65.91796928z m0-263.67187552c0 17.57812535-13.183594 35.15624992-30.76171857 35.15624992H208.777344c-17.57812535 0-30.76171857-13.183594-30.76171935-35.15624993V481.23828143c0-17.57812535 13.183594-35.15624992 30.76171935-35.15624993h61.52343717c17.57812535 0 30.76171857 13.183594 30.76171858 35.15624992v61.52343715z m0-263.67187475c0 17.57812535-13.183594 35.15624992-30.76171857 35.15624992H208.777344c-17.57812535 0-30.76171857-13.183594-30.76171935-35.15624992V217.5664059c0-17.57812535 13.183594-35.15624992 30.76171935-35.1562499h61.52343717c17.57812535 0 30.76171857 13.183594 30.76171858 35.1562499v61.52343793z m439.4531251 263.67187474l-241.69921885 131.83593776c-21.9726559 8.78906267-43.94531258-4.39453133-43.9453118-30.76171858V380.16406225c0-26.36718725 21.9726559-39.55078125 43.9453118-30.76171858l241.69921885 131.83593775c21.9726559 13.183594 21.9726559 48.33984393 0 61.52343715z m285.64453142 263.67187553c0 17.57812535-13.183594 35.15624992-30.76171859 35.1562499h-61.52343793c-17.57812535 0-30.76171857-13.183594-30.76171858-35.1562499v-65.91796927c0-17.57812535 13.183594-35.15624992 30.76171858-35.15624991h61.52343793c17.57812535 0 30.76171857 13.183594 30.76171859 35.1562499v65.91796928z m0-263.67187552c0 17.57812535-13.183594 35.15624992-30.76171859 35.15624992h-61.52343793c-17.57812535 0-30.76171857-13.183594-30.76171858-35.15624993V481.23828143c0-17.57812535 13.183594-35.15624992 30.76171858-35.15624993h61.52343793c17.57812535 0 30.76171857 13.183594 30.76171859 35.15624992v61.52343715z m0-263.67187475c0 17.57812535-13.183594 35.15624992-30.76171859 35.15624992h-61.52343793c-17.57812535 0-30.76171857-13.183594-30.76171858-35.15624992V217.5664059c0-17.57812535 13.183594-35.15624992 30.76171858-35.1562499h61.52343793c17.57812535 0 30.76171857 13.183594 30.76171859 35.1562499v61.52343793z"
          fill="#97C225" p-id="23738"></path>
</svg>
