<svg t="1722694530445" class="icon" viewBox="0 0 1256 1024" version="1.1" xmlns="http://www.w3.org/2000/svg"
     p-id="17954" width="200" height="200">
    <path
            d="M201.681455 74.472727a111.709091 111.709091 0 0 0-111.709091 111.709091v651.636364a111.709091 111.709091 0 0 0 111.709091 111.709091h837.818181a111.709091 111.709091 0 0 0 111.709091-111.709091V186.181818a111.709091 111.709091 0 0 0-111.709091-111.709091h-837.818181z m0-74.472727h837.818181a186.181818 186.181818 0 0 1 186.181819 186.181818v651.636364a186.181818 186.181818 0 0 1-186.181819 186.181818h-837.818181a186.181818 186.181818 0 0 1-186.181819-186.181818V186.181818a186.181818 186.181818 0 0 1 186.181819-186.181818zM798.72 533.085091a9.309091 9.309091 0 0 0-1.861818-13.032727l-248.226909-186.181819a9.309091 9.309091 0 0 0-14.894546 7.447273v372.363637a9.309091 9.309091 0 0 0 14.894546 7.447272l248.226909-186.181818a9.309091 9.309091 0 0 0 1.861818-1.861818z m-205.405091 247.621818a83.781818 83.781818 0 0 1-134.050909-67.025454v-372.363637a83.781818 83.781818 0 0 1 134.050909-67.025454l248.226909 186.181818a83.781818 83.781818 0 0 1 0 134.050909l-248.226909 186.181818z"
            fill="" p-id="17955"></path>
</svg>
